#!OML:ASF F:\VICON\USERDATA\INSTALL\rory3\rory3.ASF
:FULLY-SPECIFIED
:DEGREES
99
root 0.047687430153611876 17.683353912774496 47.60748015394723 -2.663306594695215 -0.3162975418463152 1.3961430611880141
lfemur 4.458817721531833 -2.8289364228453038 -26.988720199151736
ltibia 22.719933791701134
lfoot -3.383537559216276 0.3280731946327793
ltoes -3.9613382401297903
rfemur -23.887894671384654 3.5777060768761864 20.41143295237555
rtibia 33.04597943221221
rfoot -6.036336267660349 -6.022929695059799
rtoes 4.181957997401939
lowerback 9.761210386171797 -0.24486216762484536 -2.2607341331786914
upperback 0.8332538081273784 0.18630331012679702 1.1850487967516778
thorax -4.6323427879669605 0.31772261949271685 2.2457696000576615
lowerneck -16.66763309452898 -2.856923034305271 -1.968982241423208
upperneck 19.84000968234678 -3.6320211051362703 1.596679155550312
head 9.207678411990482 -1.7654301628190023 0.34332915405183245
lclavicle -1.9521159855937683e-15 9.078050100533134e-16
lhumerus -25.406720864927422 -3.671316032495791 83.07929782909775
lradius 23.872203557290252
lwrist 5.076859599764914
lhand -26.95155586792881 23.735335728569314
lfingers 7.12502
lthumb -0.2944208285764578 54.19477091998968
rclavicle -1.953474434027362e-15 9.065538929497823e-16
rhumerus -30.825212995659165 -20.818162056966862 -78.33800255576777
rradius 25.655177960363496
rwrist 6.675910145342227
rhand -17.879760564649818 22.49573611257134
rfingers 7.12502
rthumb 8.430936352557914 -7.137989728730484
100
root -0.011778526762677044 17.633718774816803 48.217319232299886 -2.457889464685207 -0.10247758579757082 1.4715620124140587
lfemur 7.691370327840001 -2.6537203152214706 -27.188987450324646
ltibia 23.082987562216537
lfoot -2.365374077403804 0.058594149952241215
ltoes -3.9219694123665647
rfemur -23.264311530402498 4.190753354664173 20.988079024135946
rtibia 31.730706790010967
rfoot -6.631624192533819 -6.06435815894881
rtoes 4.041172629285465
lowerback 9.669481796024117 -0.32571303969016585 -2.265551511809667
upperback 0.8115791484082515 -0.08910747347782699 1.227280199106617
thorax -4.618751145646977 0.2251557220068513 2.1818580233740574
lowerneck -16.656007613271598 -2.852719121604433 -1.9820996251981304
upperneck 19.842631307922723 -3.6411896859710353 1.6076466878973767
head 9.20374213702717 -1.765881396230697 0.34323275485751625
lclavicle -1.9521159855937683e-15 9.078050100533132e-16
lhumerus -24.054176138315462 -4.664571773071241 83.0283293737145
lradius 23.69975575952757
lwrist 5.239305358372242
lhand -26.973532388216274 23.68407427675988
lfingers 7.12502
lthumb -0.32198255974199763 54.11192299322466
rclavicle -1.953474434027362e-15 9.06553892949782e-16
rhumerus -31.210359804529915 -21.86494102444884 -77.72261564486725
rradius 25.44665805194148
rwrist 7.105794390359857
rhand -17.85406618387731 22.573980752724058
rfingers 7.12502
rthumb 8.43156686872483 -7.13215791278753
101
root -0.0786933610912563 17.589469724118437 48.53315052443996 -2.3853800800871814 -0.06098404441145444 1.3307212277864728
lfemur 10.121655505462009 -3.263593678660025 -27.409361908832096
ltibia 24.95570932176419
lfoot -2.9274520836499245 -0.9596636892346042
ltoes -4.049589349774049
rfemur -22.829587321114758 4.396378175059113 21.536537663431595
rtibia 31.26353166668409
rfoot -7.384543328116723 -6.09913003145225
rtoes 3.6525746593253556
lowerback 9.59004984860262 -0.34963323271854396 -2.0529502331574454
upperback 0.7745900899149238 -0.39961983928138856 1.2569640497122236
thorax -4.587121157320343 0.20878216742310474 2.26304241350048
lowerneck -16.680010549710033 -2.8574844737048477 -2.024766543923027
upperneck 19.86801429485233 -3.642418771344727 1.636525090966074
head 9.199826043581043 -1.7650132466696093 0.3408933695815944
lclavicle -1.9521159855937683e-15 9.078050100533134e-16
lhumerus -22.9518032202533 -5.242660024729375 83.01565621732162
lradius 23.5514060645615
lwrist 5.373353100164448
lhand -26.988314373335374 23.66344788138125
lfingers 7.12502
lthumb -0.2796172125907145 54.19150684846391
rclavicle -1.953474434027362e-15 9.06553892949782e-16
rhumerus -31.543040442822235 -22.94765601998657 -77.00300579249091
rradius 25.234549656137
rwrist 7.329552132758347
rhand -17.8323234694348 22.636776004524346
rfingers 7.12502
rthumb 8.458922586948178 -7.0592715898278176
102
root -0.13927162721200986 17.564834915020718 48.787456777455645 -2.4172384923216645 -0.11874163175644226 0.9954770780635709
lfemur 12.146191348030726 -4.039495941713638 -27.10023306992693
ltibia 28.09679378557545
lfoot -2.8539846471393018 -0.6266823780381214
ltoes -4.718015722505378
rfemur -21.83034609924583 4.576668768782417 22.63314690884087
rtibia 31.34057486132752
rfoot -7.633318622232442 -5.9303826671444675
rtoes 3.2158312371021305
lowerback 9.519727876197186 -0.31557661175198193 -1.6218373840954101
upperback 0.7471662277479681 -0.5448872836026661 1.3548907619377388
thorax -4.5934695101356136 0.16324680963066318 2.1140904648106655
lowerneck -16.660792073491155 -2.847929812494017 -2.0369697686983534
upperneck 19.90013336130913 -3.6382700631995935 1.656376900883213
head 9.205119370087322 -1.7577744894131377 0.3450868538908848
lclavicle -1.9521159855937683e-15 9.078050100533134e-16
lhumerus -22.16087469725767 -5.3760736218497485 83.07319278796777
lradius 23.408428530204112
lwrist 5.336901238318594
lhand -27.009512276973286 23.61959614347724
lfingers 7.12502
lthumb -0.32758516261710485 54.06184737995194
rclavicle -1.953474434027362e-15 9.06553892949782e-16
rhumerus -31.831409827531225 -24.00499607369094 -76.28978329470425
rradius 25.093794359189292
rwrist 7.542125667628276
rhand -17.839216722444878 22.605719980892474
rfingers 7.12502
rthumb 8.482948830721316 -6.985866552625336
103
root -0.1913306843322568 17.56398393716341 48.649912081497035 -2.545877406759381 -0.2773830057559121 0.41216453061500324
lfemur 13.72495153125059 -5.300446855318747 -26.565279340081634
ltibia 32.16650793678767
lfoot -3.434176206183702 -1.0260287730082966
ltoes -5.092394067425884
rfemur -20.642852999207136 4.761466054443957 23.672785996498735
rtibia 32.022797019296256
rfoot -7.406432113990552 -5.785855094520472
rtoes 3.029342028226139
lowerback 9.443916340904714 -0.3024768488586431 -1.2059805408865623
upperback 0.7130042101711027 -0.5571792351146887 1.5022805818679636
thorax -4.576286562783305 0.2147374595311835 2.0984435932477585
lowerneck -16.647499559716195 -2.8313629316299376 -2.0407201744974355
upperneck 19.95277490839209 -3.6244410488420056 1.6871743400791064
head 9.216544405461168 -1.7452676279824753 0.3550143126402092
lclavicle -1.9521159855937683e-15 9.078050100533134e-16
lhumerus -21.904186058430355 -5.229244061788585 83.18301787585067
lradius 23.262814499051764
lwrist 5.23263002199596
lhand -27.021093277534245 23.602156612700057
lfingers 7.12502
lthumb -0.2778391405133289 54.16722566871356
rclavicle -1.953474434027362e-15 9.06553892949782e-16
rhumerus -32.05155113277972 -24.833792834483585 -75.77083059929413
rradius 24.95274333489662
rwrist 7.462846621786965
rhand -17.83422578170563 22.601484672675234
rfingers 7.12502
rthumb 8.480822272484227 -6.995001367820173
